# xmcd
#
# Track frame offsets: 
#        150
#        20858
#        73807
#        101706
#        110628
#        130916
#        152805
#        180437
#        209028
#        235366
#
# Disc length: 3527 seconds
#
# Revision: 0
# Processed by: cddbd v1.5.2PL0 Copyright (c) Steve Scherf et al.
# Submitted via: ExactAudioCopy v0.99pb5
#
DISCID=970dc50a
DTITLE=Buddy Guy Eric Clapton - Ronnie Scotts Disc 1
DYEAR=1987
DGENRE=
TTITLE0=01 Sweet Home Chicago
TTITLE1=02 Play The Blues
TTITLE2=03 key To The Highway
TTITLE3=04 Walking The Dog
TTITLE4=05 Stormy Monday
TTITLE5=06 Real Mother For Ya
TTITLE6=07 Stormy Monday
TTITLE7=08 Jam
TTITLE8=09 Worried Life Blues 1
TTITLE9=10 Worried Life Blues 2
EXTD=
EXTT0=
EXTT1=
EXTT2=
EXTT3=
EXTT4=
EXTT5=
EXTT6=
EXTT7=
EXTT8=
EXTT9=
PLAYORDER=
